<mxfile host="app.diagrams.net" modified="2023-01-08T15:21:12.865Z" agent="5.0 (Macintosh; Intel Mac OS X 10_15_7) AppleWebKit/537.36 (KHTML, like Gecko) Chrome/108.0.0.0 Safari/537.36" version="20.8.3" etag="37r-j_6u8b5emCYFyTX0" type="github">
  <diagram id="RhJtP4QG4hAFuGJJz91S" name="Page-1">
    <mxGraphModel dx="2954" dy="1188" grid="0" gridSize="10" guides="1" tooltips="1" connect="1" arrows="1" fold="1" page="0" pageScale="1" pageWidth="850" pageHeight="1100" math="0" shadow="0">
      <root>
        <mxCell id="0" />
        <mxCell id="1" parent="0" />
      </root>
    </mxGraphModel>
  </diagram>
</mxfile>
